<mxfile host="app.diagrams.net" agent="Mozilla/5.0 (Windows NT 10.0; Win64; x64) AppleWebKit/537.36 (KHTML, like Gecko) Chrome/140.0.0.0 Safari/537.36" version="28.1.0">
  <diagram name="Page-1" id="SNUzIuCoOEPbIn9GyaEE">
    <mxGraphModel dx="2515" dy="777" grid="1" gridSize="10" guides="1" tooltips="1" connect="1" arrows="1" fold="1" page="1" pageScale="1" pageWidth="850" pageHeight="1100" math="0" shadow="0">
      <root>
        <mxCell id="0" />
        <mxCell id="1" parent="0" />
        <mxCell id="64VItN-ldDda_0AseaYJ-34" value="&lt;font style=&quot;font-size: 18px;&quot;&gt;Security group&lt;/font&gt;&lt;div&gt;&lt;font style=&quot;font-size: 14px;&quot;&gt;&lt;font style=&quot;color: light-dark(rgb(0, 0, 0), rgb(255, 255, 255));&quot;&gt;インバウンドルール：&lt;/font&gt;&lt;br&gt;&lt;/font&gt;&lt;div&gt;&lt;div&gt;&lt;font style=&quot;color: light-dark(rgb(0, 0, 0), rgb(255, 255, 255)); font-size: 14px;&quot;&gt;SSH,HTTP.HTTPSのみ許可&lt;/font&gt;&lt;/div&gt;&lt;/div&gt;&lt;/div&gt;" style="fillColor=none;strokeColor=#DD3522;verticalAlign=top;fontStyle=0;fontColor=#DD3522;whiteSpace=wrap;html=1;" parent="1" vertex="1">
          <mxGeometry x="520" y="110" width="600" height="570" as="geometry" />
        </mxCell>
        <mxCell id="2pPAs746N5YXF59XmvvB-1" value="" style="sketch=0;outlineConnect=0;fontColor=#232F3E;gradientColor=none;fillColor=#232F3D;strokeColor=none;dashed=0;verticalLabelPosition=bottom;verticalAlign=top;align=center;html=1;fontSize=12;fontStyle=0;aspect=fixed;pointerEvents=1;shape=mxgraph.aws4.user;" parent="1" vertex="1">
          <mxGeometry x="-300" y="357.5" width="78" height="78" as="geometry" />
        </mxCell>
        <mxCell id="2pPAs746N5YXF59XmvvB-2" value="端末" style="sketch=0;outlineConnect=0;gradientColor=none;fontColor=#545B64;strokeColor=none;fillColor=#879196;dashed=0;verticalLabelPosition=bottom;verticalAlign=top;align=center;html=1;fontSize=12;fontStyle=0;aspect=fixed;shape=mxgraph.aws4.illustration_devices;pointerEvents=1" parent="1" vertex="1">
          <mxGeometry x="-222" y="362.5" width="100" height="73" as="geometry" />
        </mxCell>
        <mxCell id="FWb8tEgiI8DzZg2tGHWB-6" value="&lt;font style=&quot;font-size: 14px;&quot;&gt;AレコードにEC2のipアドレスを指定&lt;/font&gt;" style="text;html=1;align=center;verticalAlign=middle;whiteSpace=wrap;rounded=0;" parent="1" vertex="1">
          <mxGeometry x="140" y="463" width="240" height="30" as="geometry" />
        </mxCell>
        <mxCell id="FWb8tEgiI8DzZg2tGHWB-7" value="" style="edgeStyle=orthogonalEdgeStyle;rounded=0;orthogonalLoop=1;jettySize=auto;html=1;entryX=0;entryY=0.5;entryDx=0;entryDy=0;entryPerimeter=0;startArrow=classic;startFill=1;" parent="1" source="64VItN-ldDda_0AseaYJ-6" target="FWb8tEgiI8DzZg2tGHWB-4" edge="1">
          <mxGeometry relative="1" as="geometry">
            <mxPoint x="840" y="399" as="targetPoint" />
            <mxPoint x="48" y="399" as="sourcePoint" />
          </mxGeometry>
        </mxCell>
        <mxCell id="FWb8tEgiI8DzZg2tGHWB-4" value="&lt;font style=&quot;font-size: 24px;&quot;&gt;お名前.com DNS&lt;/font&gt;" style="rounded=0;whiteSpace=wrap;html=1;" parent="1" vertex="1">
          <mxGeometry x="180" y="365" width="160" height="68" as="geometry" />
        </mxCell>
        <mxCell id="nhC98Z-bUzA45hcqgXqe-2" value="ユーザ" style="text;html=1;align=center;verticalAlign=middle;whiteSpace=wrap;rounded=0;" parent="1" vertex="1">
          <mxGeometry x="-291" y="433" width="60" height="30" as="geometry" />
        </mxCell>
        <mxCell id="64VItN-ldDda_0AseaYJ-1" value="VPC" style="points=[[0,0],[0.25,0],[0.5,0],[0.75,0],[1,0],[1,0.25],[1,0.5],[1,0.75],[1,1],[0.75,1],[0.5,1],[0.25,1],[0,1],[0,0.75],[0,0.5],[0,0.25]];outlineConnect=0;gradientColor=none;html=1;whiteSpace=wrap;fontSize=12;fontStyle=0;container=0;pointerEvents=0;collapsible=0;recursiveResize=0;shape=mxgraph.aws4.group;grIcon=mxgraph.aws4.group_vpc2;strokeColor=#8C4FFF;fillColor=none;verticalAlign=top;align=left;spacingLeft=30;fontColor=light-dark(#AAB7B8,#FFFFFF);dashed=0;" parent="1" vertex="1">
          <mxGeometry x="440" y="80" width="720" height="740" as="geometry" />
        </mxCell>
        <mxCell id="64VItN-ldDda_0AseaYJ-4" value="rein-weather.com" style="text;html=1;align=center;verticalAlign=middle;whiteSpace=wrap;rounded=0;fontSize=18;" parent="1" vertex="1">
          <mxGeometry x="180" y="433" width="160" height="30" as="geometry" />
        </mxCell>
        <mxCell id="64VItN-ldDda_0AseaYJ-7" value="" style="edgeStyle=orthogonalEdgeStyle;rounded=0;orthogonalLoop=1;jettySize=auto;html=1;entryX=0;entryY=0.5;entryDx=0;entryDy=0;entryPerimeter=0;startArrow=classic;startFill=1;" parent="1" source="2pPAs746N5YXF59XmvvB-2" target="64VItN-ldDda_0AseaYJ-6" edge="1">
          <mxGeometry relative="1" as="geometry">
            <mxPoint x="180" y="399" as="targetPoint" />
            <mxPoint x="-122" y="399" as="sourcePoint" />
          </mxGeometry>
        </mxCell>
        <mxCell id="64VItN-ldDda_0AseaYJ-6" value="" style="sketch=0;outlineConnect=0;dashed=0;verticalLabelPosition=bottom;verticalAlign=top;align=center;html=1;fontSize=12;fontStyle=0;aspect=fixed;pointerEvents=1;shape=mxgraph.aws4.internet_alt1;fillColor=#0050ef;fontColor=#ffffff;strokeColor=#001DBC;" parent="1" vertex="1">
          <mxGeometry x="-28.740000000000002" y="368.75" width="98.31" height="60.5" as="geometry" />
        </mxCell>
        <mxCell id="64VItN-ldDda_0AseaYJ-8" value="インターネット" style="text;strokeColor=none;fillColor=none;html=1;align=center;verticalAlign=middle;whiteSpace=wrap;rounded=0;fontSize=13;" parent="1" vertex="1">
          <mxGeometry x="-30.000000000000007" y="429.25" width="100.84" height="30" as="geometry" />
        </mxCell>
        <mxCell id="64VItN-ldDda_0AseaYJ-15" value="&lt;font style=&quot;color: light-dark(rgb(0, 0, 0), rgb(255, 255, 255));&quot;&gt;OpenWeather API&lt;/font&gt;" style="sketch=0;outlineConnect=0;dashed=0;verticalLabelPosition=bottom;verticalAlign=top;align=center;html=1;fontSize=12;fontStyle=0;aspect=fixed;pointerEvents=1;shape=mxgraph.aws4.internet_alt22;strokeColor=#006EAF;fillColor=#1ba1e2;fontColor=#ffffff;" parent="1" vertex="1">
          <mxGeometry x="1240" y="351.25" width="78" height="78" as="geometry" />
        </mxCell>
        <mxCell id="64VItN-ldDda_0AseaYJ-19" value="" style="edgeStyle=orthogonalEdgeStyle;rounded=0;orthogonalLoop=1;jettySize=auto;html=1;startArrow=classic;startFill=1;" parent="1" source="FWb8tEgiI8DzZg2tGHWB-4" target="64VItN-ldDda_0AseaYJ-18" edge="1">
          <mxGeometry relative="1" as="geometry">
            <mxPoint x="520" y="400" as="targetPoint" />
            <mxPoint x="340" y="399" as="sourcePoint" />
            <Array as="points" />
          </mxGeometry>
        </mxCell>
        <mxCell id="64VItN-ldDda_0AseaYJ-35" style="edgeStyle=none;curved=1;rounded=0;orthogonalLoop=1;jettySize=auto;html=1;fontSize=12;startSize=8;endSize=8;" parent="1" source="64VItN-ldDda_0AseaYJ-18" edge="1">
          <mxGeometry relative="1" as="geometry">
            <mxPoint x="480" y="399" as="targetPoint" />
          </mxGeometry>
        </mxCell>
        <mxCell id="64VItN-ldDda_0AseaYJ-13" value="Public subnet" style="points=[[0,0],[0.25,0],[0.5,0],[0.75,0],[1,0],[1,0.25],[1,0.5],[1,0.75],[1,1],[0.75,1],[0.5,1],[0.25,1],[0,1],[0,0.75],[0,0.5],[0,0.25]];outlineConnect=0;gradientColor=none;html=1;whiteSpace=wrap;fontSize=12;fontStyle=0;container=0;pointerEvents=0;collapsible=0;recursiveResize=0;shape=mxgraph.aws4.group;grIcon=mxgraph.aws4.group_security_group;grStroke=0;strokeColor=#7AA116;fillColor=#F2F6E8;verticalAlign=top;align=left;spacingLeft=30;fontColor=#248814;dashed=0;" parent="1" vertex="1">
          <mxGeometry x="560" y="180" width="520" height="460" as="geometry" />
        </mxCell>
        <mxCell id="64VItN-ldDda_0AseaYJ-20" value="" style="rounded=1;whiteSpace=wrap;html=1;fontColor=#000000;fillColor=light-dark(#FA6800,#C65E14);strokeColor=#C73500;" parent="1" vertex="1">
          <mxGeometry x="620" y="255" width="400" height="290" as="geometry" />
        </mxCell>
        <mxCell id="64VItN-ldDda_0AseaYJ-3" value="&lt;font style=&quot;font-size: 14px;&quot;&gt;HTTPS(443&lt;span style=&quot;color: light-dark(rgb(0, 0, 0), rgb(255, 255, 255));&quot;&gt;)&lt;/span&gt;&lt;/font&gt;" style="edgeStyle=orthogonalEdgeStyle;rounded=0;orthogonalLoop=1;jettySize=auto;html=1;startArrow=classic;startFill=1;" parent="1" source="64VItN-ldDda_0AseaYJ-18" target="64VItN-ldDda_0AseaYJ-10" edge="1">
          <mxGeometry x="0.1031" y="1" relative="1" as="geometry">
            <mxPoint x="580" y="399" as="targetPoint" />
            <mxPoint x="340" y="399" as="sourcePoint" />
            <Array as="points">
              <mxPoint x="560" y="399" />
              <mxPoint x="560" y="401" />
            </Array>
            <mxPoint as="offset" />
          </mxGeometry>
        </mxCell>
        <mxCell id="64VItN-ldDda_0AseaYJ-31" value="インターネットゲートウェイ" style="text;html=1;align=center;verticalAlign=middle;whiteSpace=wrap;rounded=0;" parent="1" vertex="1">
          <mxGeometry x="396.75" y="436.5" width="95.5" height="30" as="geometry" />
        </mxCell>
        <mxCell id="64VItN-ldDda_0AseaYJ-29" value="&lt;font style=&quot;font-size: 13px;&quot;&gt;localhost:8000&lt;/font&gt;" style="edgeStyle=none;curved=1;rounded=0;orthogonalLoop=1;jettySize=auto;html=1;fontSize=12;startSize=8;endSize=8;startArrow=classic;startFill=1;" parent="1" source="64VItN-ldDda_0AseaYJ-10" target="64VItN-ldDda_0AseaYJ-14" edge="1">
          <mxGeometry relative="1" as="geometry" />
        </mxCell>
        <mxCell id="64VItN-ldDda_0AseaYJ-14" value="&lt;font style=&quot;color: light-dark(rgb(0, 0, 0), rgb(0, 0, 0)); font-size: 14px;&quot;&gt;gunicorn + FastAPI&lt;/font&gt;" style="sketch=0;points=[[0,0,0],[0.25,0,0],[0.5,0,0],[0.75,0,0],[1,0,0],[0,1,0],[0.25,1,0],[0.5,1,0],[0.75,1,0],[1,1,0],[0,0.25,0],[0,0.5,0],[0,0.75,0],[1,0.25,0],[1,0.5,0],[1,0.75,0]];gradientDirection=north;outlineConnect=0;dashed=0;verticalLabelPosition=bottom;verticalAlign=top;align=center;html=1;fontSize=12;fontStyle=0;aspect=fixed;shape=mxgraph.aws4.resourceIcon;resIcon=mxgraph.aws4.general;" parent="1" vertex="1">
          <mxGeometry x="860" y="350" width="78" height="78" as="geometry" />
        </mxCell>
        <mxCell id="64VItN-ldDda_0AseaYJ-26" value="EC2 インスタンス" style="text;html=1;align=center;verticalAlign=middle;whiteSpace=wrap;rounded=0;fontColor=light-dark(#000000,#000000);" parent="1" vertex="1">
          <mxGeometry x="650" y="261" width="110" height="30" as="geometry" />
        </mxCell>
        <mxCell id="64VItN-ldDda_0AseaYJ-27" style="edgeStyle=none;curved=1;rounded=0;orthogonalLoop=1;jettySize=auto;html=1;entryX=0.5;entryY=0;entryDx=0;entryDy=0;entryPerimeter=0;fontSize=12;startSize=8;endSize=8;" parent="1" source="64VItN-ldDda_0AseaYJ-14" target="64VItN-ldDda_0AseaYJ-14" edge="1">
          <mxGeometry relative="1" as="geometry" />
        </mxCell>
        <mxCell id="64VItN-ldDda_0AseaYJ-32" value="&lt;font style=&quot;color: light-dark(rgb(0, 0, 0), rgb(0, 0, 0));&quot;&gt;HTTP（80）をHTTPS（443）にリダイレクト&lt;/font&gt;" style="text;html=1;align=center;verticalAlign=middle;whiteSpace=wrap;rounded=0;fontSize=13;" parent="1" vertex="1">
          <mxGeometry x="620" y="459.25" width="220" height="30" as="geometry" />
        </mxCell>
        <mxCell id="64VItN-ldDda_0AseaYJ-37" style="edgeStyle=none;curved=1;rounded=0;orthogonalLoop=1;jettySize=auto;html=1;exitX=1;exitY=1;exitDx=0;exitDy=0;fontSize=12;startSize=8;endSize=8;" parent="1" source="64VItN-ldDda_0AseaYJ-34" target="64VItN-ldDda_0AseaYJ-34" edge="1">
          <mxGeometry relative="1" as="geometry" />
        </mxCell>
        <mxCell id="64VItN-ldDda_0AseaYJ-16" value="&lt;font style=&quot;color: light-dark(rgb(0, 0, 0), rgb(255, 255, 255));&quot;&gt;OpenAI API&lt;/font&gt;" style="sketch=0;outlineConnect=0;fontColor=#ffffff;fillColor=#1ba1e2;strokeColor=#006EAF;dashed=0;verticalLabelPosition=bottom;verticalAlign=top;align=center;html=1;fontSize=12;fontStyle=0;aspect=fixed;pointerEvents=1;shape=mxgraph.aws4.internet_alt22;" parent="1" vertex="1">
          <mxGeometry x="1240" y="80" width="78" height="78" as="geometry" />
        </mxCell>
        <mxCell id="64VItN-ldDda_0AseaYJ-23" style="edgeStyle=orthogonalEdgeStyle;rounded=0;orthogonalLoop=1;jettySize=auto;html=1;fontSize=12;startSize=8;endSize=8;dashed=1;startArrow=classic;startFill=1;" parent="1" source="64VItN-ldDda_0AseaYJ-16" target="64VItN-ldDda_0AseaYJ-14" edge="1">
          <mxGeometry relative="1" as="geometry">
            <mxPoint x="1300" y="410" as="targetPoint" />
          </mxGeometry>
        </mxCell>
        <mxCell id="64VItN-ldDda_0AseaYJ-24" style="edgeStyle=none;curved=1;rounded=0;orthogonalLoop=1;jettySize=auto;html=1;entryX=1;entryY=0.5;entryDx=0;entryDy=0;entryPerimeter=0;fontSize=12;startSize=8;endSize=8;dashed=1;startArrow=classic;startFill=1;" parent="1" source="64VItN-ldDda_0AseaYJ-15" target="64VItN-ldDda_0AseaYJ-14" edge="1">
          <mxGeometry relative="1" as="geometry" />
        </mxCell>
        <mxCell id="64VItN-ldDda_0AseaYJ-18" value="" style="outlineConnect=0;dashed=0;verticalLabelPosition=bottom;verticalAlign=top;align=center;html=1;shape=mxgraph.aws3.internet_gateway;fillColor=#F58534;gradientColor=none;" parent="1" vertex="1">
          <mxGeometry x="410" y="361.5" width="69" height="75" as="geometry" />
        </mxCell>
        <mxCell id="64VItN-ldDda_0AseaYJ-10" value="&lt;font style=&quot;color: light-dark(rgb(0, 0, 0), rgb(0, 0, 0)); font-size: 17px;&quot;&gt;Nginx&lt;/font&gt;" style="sketch=0;outlineConnect=0;dashed=0;verticalLabelPosition=bottom;verticalAlign=top;align=center;html=1;fontSize=12;fontStyle=0;aspect=fixed;pointerEvents=1;shape=mxgraph.aws4.traditional_server;shadow=0;" parent="1" vertex="1">
          <mxGeometry x="700" y="350" width="45" height="78" as="geometry" />
        </mxCell>
        <mxCell id="FS3i1wCe-CGsMnNBVLA7-1" value="Google maps API" style="sketch=0;outlineConnect=0;fontColor=#232F3E;gradientColor=none;fillColor=#1BA1E2;strokeColor=none;dashed=0;verticalLabelPosition=bottom;verticalAlign=top;align=center;html=1;fontSize=12;fontStyle=0;aspect=fixed;pointerEvents=1;shape=mxgraph.aws4.internet_alt22;" vertex="1" parent="1">
          <mxGeometry x="1240" y="602" width="78" height="78" as="geometry" />
        </mxCell>
        <mxCell id="FS3i1wCe-CGsMnNBVLA7-3" style="edgeStyle=orthogonalEdgeStyle;rounded=0;orthogonalLoop=1;jettySize=auto;html=1;fontSize=12;startSize=8;endSize=8;dashed=1;startArrow=classic;startFill=1;" edge="1" parent="1" target="64VItN-ldDda_0AseaYJ-14">
          <mxGeometry relative="1" as="geometry">
            <mxPoint x="899" y="871" as="targetPoint" />
            <mxPoint x="1240" y="640" as="sourcePoint" />
          </mxGeometry>
        </mxCell>
      </root>
    </mxGraphModel>
  </diagram>
</mxfile>
